{"title":"Pusha T Ft. Chris Brown - Sweet Serenade [Explicit] 720p [Sbyky]","uid":9171540,"size":51091134,"categoryP":"video","categoryS":"music_videos","magnet":"?xt=urn:btih:b7cf05177fbc13153f571fea2687a781eaabc1e3&amp;dn=Pusha+T+Ft.+Chris+Brown+-+Sweet+Serenade+%5BExplicit%5D+720p+%5BSbyky%5D&amp;tr=udp%3A%2F%2Ftracker.openbittorrent.com%3A80&amp;tr=udp%3A%2F%2Fopen.demonii.com%3A1337&amp;tr=udp%3A%2F%2Ftracker.coppersurfer.tk%3A6969&amp;tr=udp%3A%2F%2Fexodus.desync.com%3A6969","seeders":1,"leechers":0,"uploader":"Sbyky","files":1,"time":1384079963,"description":"[IMG]http://cdn.piczend.com/images/DHwOy6xL/1383938809_sweetserenadeexplicit.jpg[/IMG]\n\nGeneral\nComplete name                            : Pusha T Ft. Chris Brown - Sweet Serenade [Explicit] 720p [Sbyky].MP4\nFormat                                   : MPEG-4\nFormat profile                           : Base Media\nCodec ID                                 : isom\nFile size                                : 48.7 MiB\nDuration                                 : 3mn 59s\nOverall bit rate mode                    : Variable\nOverall bit rate                         : 1 710 Kbps\nEncoded date                             : UTC 2013-10-07 02:52:36\nTagged date                              : UTC 2013-10-07 02:52:36\n\nVideo\nID                                       : 1\nFormat                                   : AVC\nFormat/Info                              : Advanced Video Codec\nFormat profile                           : &lt;a class=&quot;__cf_email__&quot; href=&quot;/cdn-cgi/l/email-protection&quot; data-cfemail=&quot;8dc0ece4e3cdc1bea3bc&quot;&gt;[email&amp;#160;protected]&lt;/a&gt;&lt;script cf-hash='f9e31' type=&quot;text/javascript&quot;&gt;\n/* &lt;![CDATA[ */!function(){try{var t=&quot;currentScript&quot;in document?document.currentScript:function(){for(var t=document.getElementsByTagName(&quot;script&quot;),e=t.length;e--;)if(t[e].getAttribute(&quot;cf-hash&quot;))return t[e]}();if(t&amp;&amp;t.previousSibling){var e,r,n,i,c=t.previousSibling,a=c.getAttribute(&quot;data-cfemail&quot;);if(a){for(e=&quot;&quot;,r=parseInt(a.substr(0,2),16),n=2;a.length-n;n+=2)i=parseInt(a.substr(n,2),16)^r,e+=String.fromCharCode(i);e=document.createTextNode(e),c.parentNode.replaceChild(e,c)}}}catch(u){}}();/* ]]&gt; */&lt;/script&gt;\nFormat settings, CABAC                   : Yes\nFormat settings, ReFrames                : 3 frames\nCodec ID                                 : avc1\nCodec ID/Info                            : Advanced Video Coding\nDuration                                 : 3mn 58s\nBit rate                                 : 1 454 Kbps\nWidth                                    : 1 280 pixels\nHeight                                   : 720 pixels\nDisplay aspect ratio                     : 16:9\nFrame rate mode                          : Variable\nFrame rate                               : 23.976 fps\nMinimum frame rate                       : 23.974 fps\nMaximum frame rate                       : 24.168 fps\nColor space                              : YUV\nChroma subsampling                       : 4:2:0\nBit depth                                : 8 bits\nScan type                                : Progressive\nBits/(Pixel*Frame)                       : 0.066\nStream size                              : 41.4 MiB (85%)\nEncoded date                             : UTC 2013-10-07 02:52:36\nTagged date                              : UTC 2013-10-07 02:52:36\n\nAudio\nID                                       : 2\nFormat                                   : AAC\nFormat/Info                              : Advanced Audio Codec\nFormat profile                           : LC\nCodec ID                                 : 40\nDuration                                 : 3mn 59s\nBit rate mode                            : Variable\nBit rate                                 : 254 Kbps\nChannel(s)                               : 2 channels\nChannel positions                        : Front: L R\nSampling rate                            : 44.1 KHz\nCompression mode                         : Lossy\nDelay relative to video                  : -3s 754ms\nStream size                              : 7.23 MiB (15%)\nEncoded date                             : UTC 2013-10-07 02:52:44\nTagged date                              : UTC 2013-10-07 02:52:44\n\nShared By Sbyky\n[IMG]http://cdn.piczend.com/images/X3Ag13N3/1379453786_saythanks.gif[/IMG]\n[IMG]http://cdn.piczend.com/images/gGqhX2S8/1379453780_keepseeding.gif[/IMG]","torrent":{"xt":"urn:btih:b7cf05177fbc13153f571fea2687a781eaabc1e3","amp;dn":"Pusha+T+Ft.+Chris+Brown+-+Sweet+Serenade+%5BExplicit%5D+720p+%5BSbyky%5D","amp;tr":["udp%3A%2F%2Ftracker.openbittorrent.com%3A80","udp%3A%2F%2Fopen.demonii.com%3A1337","udp%3A%2F%2Ftracker.coppersurfer.tk%3A6969","udp%3A%2F%2Fexodus.desync.com%3A6969"],"infoHash":"b7cf05177fbc13153f571fea2687a781eaabc1e3","infoHashBuffer":{"type":"Buffer","data":[183,207,5,23,127,188,19,21,63,87,31,234,38,135,167,129,234,171,193,227]},"announce":[],"urlList":[]}}